<mxfile host="65bd71144e">
    <diagram name="High-level architecture" id="4ymQIB2j43LrChPWlLGp">
        <mxGraphModel dx="2734" dy="2500" grid="1" gridSize="10" guides="1" tooltips="1" connect="1" arrows="1" fold="1" page="1" pageScale="1" pageWidth="850" pageHeight="1100" math="0" shadow="0">
            <root>
                <mxCell id="0"/>
                <mxCell id="1" parent="0"/>
                <mxCell id="taIFqjmm-IjXkgndWMbO-25" value="&lt;font style=&quot;font-size: 16px;&quot;&gt;Kafka Cluster&lt;/font&gt;" style="shape=umlFrame;whiteSpace=wrap;html=1;pointerEvents=0;width=70;height=40;" parent="1" vertex="1">
                    <mxGeometry x="375" y="25" width="650" height="600" as="geometry"/>
                </mxCell>
                <mxCell id="taIFqjmm-IjXkgndWMbO-48" value="" style="rounded=0;whiteSpace=wrap;html=1;" parent="1" vertex="1">
                    <mxGeometry x="-320" y="605" width="480" height="190" as="geometry"/>
                </mxCell>
                <mxCell id="taIFqjmm-IjXkgndWMbO-28" style="edgeStyle=orthogonalEdgeStyle;rounded=0;orthogonalLoop=1;jettySize=auto;html=1;entryX=0;entryY=0.5;entryDx=0;entryDy=0;" parent="1" source="taIFqjmm-IjXkgndWMbO-4" target="taIFqjmm-IjXkgndWMbO-26" edge="1">
                    <mxGeometry relative="1" as="geometry"/>
                </mxCell>
                <mxCell id="taIFqjmm-IjXkgndWMbO-4" value="UserRegistration service" style="html=1;dropTarget=0;whiteSpace=wrap;" parent="1" vertex="1">
                    <mxGeometry x="50" y="95" width="180" height="90" as="geometry"/>
                </mxCell>
                <mxCell id="taIFqjmm-IjXkgndWMbO-5" value="" style="shape=module;jettyWidth=8;jettyHeight=4;" parent="taIFqjmm-IjXkgndWMbO-4" vertex="1">
                    <mxGeometry x="1" width="20" height="20" relative="1" as="geometry">
                        <mxPoint x="-27" y="7" as="offset"/>
                    </mxGeometry>
                </mxCell>
                <mxCell id="taIFqjmm-IjXkgndWMbO-34" style="edgeStyle=orthogonalEdgeStyle;rounded=0;orthogonalLoop=1;jettySize=auto;html=1;entryX=0.256;entryY=1.046;entryDx=0;entryDy=0;entryPerimeter=0;" parent="1" source="taIFqjmm-IjXkgndWMbO-6" target="taIFqjmm-IjXkgndWMbO-27" edge="1">
                    <mxGeometry relative="1" as="geometry">
                        <Array as="points">
                            <mxPoint x="755" y="240"/>
                        </Array>
                        <mxPoint x="755" y="190" as="targetPoint"/>
                    </mxGeometry>
                </mxCell>
                <mxCell id="taIFqjmm-IjXkgndWMbO-36" style="edgeStyle=orthogonalEdgeStyle;rounded=0;orthogonalLoop=1;jettySize=auto;html=1;entryX=0.25;entryY=0;entryDx=0;entryDy=0;" parent="1" source="taIFqjmm-IjXkgndWMbO-6" target="taIFqjmm-IjXkgndWMbO-35" edge="1">
                    <mxGeometry relative="1" as="geometry"/>
                </mxCell>
                <mxCell id="taIFqjmm-IjXkgndWMbO-6" value="Log-in service" style="html=1;dropTarget=0;whiteSpace=wrap;" parent="1" vertex="1">
                    <mxGeometry x="50" y="195" width="180" height="90" as="geometry"/>
                </mxCell>
                <mxCell id="taIFqjmm-IjXkgndWMbO-7" value="" style="shape=module;jettyWidth=8;jettyHeight=4;" parent="taIFqjmm-IjXkgndWMbO-6" vertex="1">
                    <mxGeometry x="1" width="20" height="20" relative="1" as="geometry">
                        <mxPoint x="-27" y="7" as="offset"/>
                    </mxGeometry>
                </mxCell>
                <mxCell id="taIFqjmm-IjXkgndWMbO-9" value="User&lt;br&gt;WebPage" style="shape=umlFrame;whiteSpace=wrap;html=1;pointerEvents=0;width=70;height=40;" parent="1" vertex="1">
                    <mxGeometry x="-320" y="60" width="220" height="390" as="geometry"/>
                </mxCell>
                <mxCell id="taIFqjmm-IjXkgndWMbO-18" style="edgeStyle=orthogonalEdgeStyle;rounded=0;orthogonalLoop=1;jettySize=auto;html=1;" parent="1" source="taIFqjmm-IjXkgndWMbO-10" target="taIFqjmm-IjXkgndWMbO-4" edge="1">
                    <mxGeometry relative="1" as="geometry"/>
                </mxCell>
                <mxCell id="taIFqjmm-IjXkgndWMbO-10" value="Registration page" style="rounded=0;whiteSpace=wrap;html=1;" parent="1" vertex="1">
                    <mxGeometry x="-280" y="110" width="120" height="60" as="geometry"/>
                </mxCell>
                <mxCell id="taIFqjmm-IjXkgndWMbO-11" value="Metrics/Log&lt;br&gt;Dashboard" style="shape=umlFrame;whiteSpace=wrap;html=1;pointerEvents=0;width=80;height=50;" parent="1" vertex="1">
                    <mxGeometry x="1290" y="80" width="160" height="360" as="geometry"/>
                </mxCell>
                <mxCell id="taIFqjmm-IjXkgndWMbO-17" style="edgeStyle=orthogonalEdgeStyle;rounded=0;orthogonalLoop=1;jettySize=auto;html=1;entryX=0;entryY=0.5;entryDx=0;entryDy=0;" parent="1" source="taIFqjmm-IjXkgndWMbO-12" target="taIFqjmm-IjXkgndWMbO-6" edge="1">
                    <mxGeometry relative="1" as="geometry"/>
                </mxCell>
                <mxCell id="taIFqjmm-IjXkgndWMbO-12" value="Log-in page" style="rounded=0;whiteSpace=wrap;html=1;" parent="1" vertex="1">
                    <mxGeometry x="-280" y="210" width="120" height="60" as="geometry"/>
                </mxCell>
                <mxCell id="taIFqjmm-IjXkgndWMbO-16" style="edgeStyle=orthogonalEdgeStyle;rounded=0;orthogonalLoop=1;jettySize=auto;html=1;" parent="1" source="taIFqjmm-IjXkgndWMbO-13" target="taIFqjmm-IjXkgndWMbO-14" edge="1">
                    <mxGeometry relative="1" as="geometry"/>
                </mxCell>
                <mxCell id="taIFqjmm-IjXkgndWMbO-13" value="Weather station Submission" style="rounded=0;whiteSpace=wrap;html=1;" parent="1" vertex="1">
                    <mxGeometry x="-280" y="320" width="120" height="60" as="geometry"/>
                </mxCell>
                <mxCell id="taIFqjmm-IjXkgndWMbO-38" style="edgeStyle=orthogonalEdgeStyle;rounded=0;orthogonalLoop=1;jettySize=auto;html=1;entryX=0.25;entryY=1;entryDx=0;entryDy=0;" parent="1" source="taIFqjmm-IjXkgndWMbO-14" target="taIFqjmm-IjXkgndWMbO-35" edge="1">
                    <mxGeometry relative="1" as="geometry">
                        <Array as="points">
                            <mxPoint x="470" y="350"/>
                            <mxPoint x="470" y="400"/>
                            <mxPoint x="755" y="400"/>
                        </Array>
                        <mxPoint x="760" y="320" as="targetPoint"/>
                    </mxGeometry>
                </mxCell>
                <mxCell id="taIFqjmm-IjXkgndWMbO-39" style="edgeStyle=orthogonalEdgeStyle;rounded=0;orthogonalLoop=1;jettySize=auto;html=1;entryX=0.25;entryY=0;entryDx=0;entryDy=0;" parent="1" source="taIFqjmm-IjXkgndWMbO-14" target="taIFqjmm-IjXkgndWMbO-37" edge="1">
                    <mxGeometry relative="1" as="geometry">
                        <Array as="points">
                            <mxPoint x="470" y="350"/>
                            <mxPoint x="470" y="400"/>
                            <mxPoint x="755" y="400"/>
                        </Array>
                    </mxGeometry>
                </mxCell>
                <mxCell id="taIFqjmm-IjXkgndWMbO-14" value="Weather log connector" style="html=1;dropTarget=0;whiteSpace=wrap;" parent="1" vertex="1">
                    <mxGeometry x="50" y="305" width="180" height="90" as="geometry"/>
                </mxCell>
                <mxCell id="taIFqjmm-IjXkgndWMbO-15" value="" style="shape=module;jettyWidth=8;jettyHeight=4;" parent="taIFqjmm-IjXkgndWMbO-14" vertex="1">
                    <mxGeometry x="1" width="20" height="20" relative="1" as="geometry">
                        <mxPoint x="-27" y="7" as="offset"/>
                    </mxGeometry>
                </mxCell>
                <mxCell id="taIFqjmm-IjXkgndWMbO-19" value="&lt;div style=&quot;box-sizing:border-box;width:100%;background:#e4e4e4;padding:2px;&quot;&gt;&lt;br&gt;&lt;/div&gt;" style="verticalAlign=top;align=left;overflow=fill;html=1;whiteSpace=wrap;" parent="1" vertex="1">
                    <mxGeometry x="-50" y="645" width="180" height="90" as="geometry"/>
                </mxCell>
                <mxCell id="taIFqjmm-IjXkgndWMbO-20" value="UserRegistration service" style="html=1;dropTarget=0;whiteSpace=wrap;" parent="1" vertex="1">
                    <mxGeometry x="-300" y="645" width="180" height="90" as="geometry"/>
                </mxCell>
                <mxCell id="taIFqjmm-IjXkgndWMbO-21" value="" style="shape=module;jettyWidth=8;jettyHeight=4;" parent="taIFqjmm-IjXkgndWMbO-20" vertex="1">
                    <mxGeometry x="1" width="20" height="20" relative="1" as="geometry">
                        <mxPoint x="-27" y="7" as="offset"/>
                    </mxGeometry>
                </mxCell>
                <mxCell id="taIFqjmm-IjXkgndWMbO-22" value="Topic" style="text;html=1;align=center;verticalAlign=middle;resizable=0;points=[];autosize=1;strokeColor=none;fillColor=none;" parent="1" vertex="1">
                    <mxGeometry x="15" y="615" width="50" height="30" as="geometry"/>
                </mxCell>
                <mxCell id="taIFqjmm-IjXkgndWMbO-23" value="Microservice" style="text;html=1;align=center;verticalAlign=middle;resizable=0;points=[];autosize=1;strokeColor=none;fillColor=none;" parent="1" vertex="1">
                    <mxGeometry x="-255" y="615" width="90" height="30" as="geometry"/>
                </mxCell>
                <mxCell id="taIFqjmm-IjXkgndWMbO-31" style="edgeStyle=orthogonalEdgeStyle;rounded=0;orthogonalLoop=1;jettySize=auto;html=1;entryX=0;entryY=0.5;entryDx=0;entryDy=0;" parent="1" source="taIFqjmm-IjXkgndWMbO-26" target="taIFqjmm-IjXkgndWMbO-29" edge="1">
                    <mxGeometry relative="1" as="geometry"/>
                </mxCell>
                <mxCell id="taIFqjmm-IjXkgndWMbO-26" value="&lt;div style=&quot;box-sizing:border-box;width:100%;background:#e4e4e4;padding:2px;&quot;&gt;User.Pending-Registrations&lt;/div&gt;" style="verticalAlign=top;align=left;overflow=fill;html=1;whiteSpace=wrap;" parent="1" vertex="1">
                    <mxGeometry x="480" y="133.75" width="180" height="16.25" as="geometry"/>
                </mxCell>
                <mxCell id="taIFqjmm-IjXkgndWMbO-27" value="&lt;div style=&quot;box-sizing:border-box;width:100%;background:#e4e4e4;padding:2px;&quot;&gt;User.Registered&lt;/div&gt;" style="verticalAlign=top;align=left;overflow=fill;html=1;whiteSpace=wrap;" parent="1" vertex="1">
                    <mxGeometry x="709" y="132.5" width="180" height="17.5" as="geometry"/>
                </mxCell>
                <mxCell id="taIFqjmm-IjXkgndWMbO-32" style="edgeStyle=orthogonalEdgeStyle;rounded=0;orthogonalLoop=1;jettySize=auto;html=1;" parent="1" source="taIFqjmm-IjXkgndWMbO-29" target="taIFqjmm-IjXkgndWMbO-27" edge="1">
                    <mxGeometry relative="1" as="geometry">
                        <Array as="points">
                            <mxPoint x="800" y="-45"/>
                        </Array>
                    </mxGeometry>
                </mxCell>
                <mxCell id="P2h2nq67WLhF7IXcXq87-2" style="edgeStyle=orthogonalEdgeStyle;rounded=0;orthogonalLoop=1;jettySize=auto;html=1;entryX=0.5;entryY=0;entryDx=0;entryDy=0;" parent="1" source="taIFqjmm-IjXkgndWMbO-29" target="P2h2nq67WLhF7IXcXq87-1" edge="1">
                    <mxGeometry relative="1" as="geometry"/>
                </mxCell>
                <mxCell id="taIFqjmm-IjXkgndWMbO-29" value="Registration Validator" style="html=1;dropTarget=0;whiteSpace=wrap;" parent="1" vertex="1">
                    <mxGeometry x="610" y="-90" width="180" height="90" as="geometry"/>
                </mxCell>
                <mxCell id="taIFqjmm-IjXkgndWMbO-30" value="" style="shape=module;jettyWidth=8;jettyHeight=4;" parent="taIFqjmm-IjXkgndWMbO-29" vertex="1">
                    <mxGeometry x="1" width="20" height="20" relative="1" as="geometry">
                        <mxPoint x="-27" y="7" as="offset"/>
                    </mxGeometry>
                </mxCell>
                <mxCell id="taIFqjmm-IjXkgndWMbO-35" value="&lt;div style=&quot;box-sizing:border-box;width:100%;background:#e4e4e4;padding:2px;&quot;&gt;User.Login-Activity&lt;/div&gt;" style="verticalAlign=top;align=left;overflow=fill;html=1;whiteSpace=wrap;" parent="1" vertex="1">
                    <mxGeometry x="709" y="280" width="180" height="17" as="geometry"/>
                </mxCell>
                <mxCell id="taIFqjmm-IjXkgndWMbO-37" value="&lt;div style=&quot;box-sizing:border-box;width:100%;background:#e4e4e4;padding:2px;&quot;&gt;WeatherSensor.submitted&lt;/div&gt;" style="verticalAlign=top;align=left;overflow=fill;html=1;whiteSpace=wrap;" parent="1" vertex="1">
                    <mxGeometry x="710" y="420" width="180" height="16" as="geometry"/>
                </mxCell>
                <mxCell id="taIFqjmm-IjXkgndWMbO-42" style="edgeStyle=orthogonalEdgeStyle;rounded=0;orthogonalLoop=1;jettySize=auto;html=1;entryX=0.75;entryY=0;entryDx=0;entryDy=0;" parent="1" source="taIFqjmm-IjXkgndWMbO-40" target="taIFqjmm-IjXkgndWMbO-37" edge="1">
                    <mxGeometry relative="1" as="geometry">
                        <Array as="points">
                            <mxPoint x="940" y="325"/>
                            <mxPoint x="940" y="400"/>
                            <mxPoint x="845" y="400"/>
                        </Array>
                    </mxGeometry>
                </mxCell>
                <mxCell id="taIFqjmm-IjXkgndWMbO-43" style="edgeStyle=orthogonalEdgeStyle;rounded=0;orthogonalLoop=1;jettySize=auto;html=1;entryX=0.75;entryY=1;entryDx=0;entryDy=0;" parent="1" source="taIFqjmm-IjXkgndWMbO-40" target="taIFqjmm-IjXkgndWMbO-35" edge="1">
                    <mxGeometry relative="1" as="geometry">
                        <Array as="points">
                            <mxPoint x="940" y="325"/>
                            <mxPoint x="940" y="400"/>
                            <mxPoint x="845" y="400"/>
                        </Array>
                    </mxGeometry>
                </mxCell>
                <mxCell id="taIFqjmm-IjXkgndWMbO-44" style="edgeStyle=orthogonalEdgeStyle;rounded=0;orthogonalLoop=1;jettySize=auto;html=1;entryX=0.75;entryY=1;entryDx=0;entryDy=0;" parent="1" source="taIFqjmm-IjXkgndWMbO-40" target="taIFqjmm-IjXkgndWMbO-27" edge="1">
                    <mxGeometry relative="1" as="geometry">
                        <Array as="points">
                            <mxPoint x="940" y="325"/>
                            <mxPoint x="940" y="240"/>
                            <mxPoint x="844" y="240"/>
                        </Array>
                        <mxPoint x="845" y="150" as="targetPoint"/>
                    </mxGeometry>
                </mxCell>
                <mxCell id="h68zcc7ItVI-fthzScfV-8" style="edgeStyle=orthogonalEdgeStyle;rounded=0;orthogonalLoop=1;jettySize=auto;html=1;entryX=0.75;entryY=0;entryDx=0;entryDy=0;" parent="1" source="taIFqjmm-IjXkgndWMbO-40" target="h68zcc7ItVI-fthzScfV-3" edge="1">
                    <mxGeometry relative="1" as="geometry">
                        <Array as="points">
                            <mxPoint x="940" y="325"/>
                            <mxPoint x="940" y="465"/>
                            <mxPoint x="845" y="465"/>
                        </Array>
                    </mxGeometry>
                </mxCell>
                <mxCell id="h68zcc7ItVI-fthzScfV-9" style="edgeStyle=orthogonalEdgeStyle;rounded=0;orthogonalLoop=1;jettySize=auto;html=1;entryX=0.75;entryY=1;entryDx=0;entryDy=0;" parent="1" source="taIFqjmm-IjXkgndWMbO-40" target="taIFqjmm-IjXkgndWMbO-37" edge="1">
                    <mxGeometry relative="1" as="geometry">
                        <Array as="points">
                            <mxPoint x="940" y="325"/>
                            <mxPoint x="940" y="465"/>
                            <mxPoint x="845" y="465"/>
                        </Array>
                    </mxGeometry>
                </mxCell>
                <mxCell id="taIFqjmm-IjXkgndWMbO-40" value="Metrics Aggregator" style="html=1;dropTarget=0;whiteSpace=wrap;" parent="1" vertex="1">
                    <mxGeometry x="1060" y="280" width="180" height="90" as="geometry"/>
                </mxCell>
                <mxCell id="taIFqjmm-IjXkgndWMbO-41" value="" style="shape=module;jettyWidth=8;jettyHeight=4;" parent="taIFqjmm-IjXkgndWMbO-40" vertex="1">
                    <mxGeometry x="1" width="20" height="20" relative="1" as="geometry">
                        <mxPoint x="-27" y="7" as="offset"/>
                    </mxGeometry>
                </mxCell>
                <mxCell id="taIFqjmm-IjXkgndWMbO-53" style="edgeStyle=orthogonalEdgeStyle;rounded=0;orthogonalLoop=1;jettySize=auto;html=1;entryX=1;entryY=0.5;entryDx=0;entryDy=0;" parent="1" source="taIFqjmm-IjXkgndWMbO-45" target="taIFqjmm-IjXkgndWMbO-40" edge="1">
                    <mxGeometry relative="1" as="geometry"/>
                </mxCell>
                <mxCell id="taIFqjmm-IjXkgndWMbO-45" value="Weather Page" style="rounded=0;whiteSpace=wrap;html=1;" parent="1" vertex="1">
                    <mxGeometry x="1310" y="360" width="120" height="60" as="geometry"/>
                </mxCell>
                <mxCell id="taIFqjmm-IjXkgndWMbO-52" style="edgeStyle=orthogonalEdgeStyle;rounded=0;orthogonalLoop=1;jettySize=auto;html=1;entryX=1;entryY=0.5;entryDx=0;entryDy=0;" parent="1" source="taIFqjmm-IjXkgndWMbO-46" target="taIFqjmm-IjXkgndWMbO-40" edge="1">
                    <mxGeometry relative="1" as="geometry"/>
                </mxCell>
                <mxCell id="taIFqjmm-IjXkgndWMbO-46" value="Current Logged in users" style="rounded=0;whiteSpace=wrap;html=1;" parent="1" vertex="1">
                    <mxGeometry x="1310" y="270" width="120" height="60" as="geometry"/>
                </mxCell>
                <mxCell id="taIFqjmm-IjXkgndWMbO-51" style="edgeStyle=orthogonalEdgeStyle;rounded=0;orthogonalLoop=1;jettySize=auto;html=1;entryX=1;entryY=0.5;entryDx=0;entryDy=0;" parent="1" source="taIFqjmm-IjXkgndWMbO-47" target="taIFqjmm-IjXkgndWMbO-40" edge="1">
                    <mxGeometry relative="1" as="geometry"/>
                </mxCell>
                <mxCell id="taIFqjmm-IjXkgndWMbO-47" value="Registered users" style="rounded=0;whiteSpace=wrap;html=1;" parent="1" vertex="1">
                    <mxGeometry x="1310" y="185" width="120" height="60" as="geometry"/>
                </mxCell>
                <mxCell id="taIFqjmm-IjXkgndWMbO-49" value="Legend" style="text;html=1;align=center;verticalAlign=middle;resizable=0;points=[];autosize=1;strokeColor=none;fillColor=none;" parent="1" vertex="1">
                    <mxGeometry x="-280" y="575" width="60" height="30" as="geometry"/>
                </mxCell>
                <mxCell id="h68zcc7ItVI-fthzScfV-6" style="edgeStyle=orthogonalEdgeStyle;rounded=0;orthogonalLoop=1;jettySize=auto;html=1;entryX=0.25;entryY=0;entryDx=0;entryDy=0;" parent="1" source="h68zcc7ItVI-fthzScfV-1" target="h68zcc7ItVI-fthzScfV-3" edge="1">
                    <mxGeometry relative="1" as="geometry"/>
                </mxCell>
                <mxCell id="h68zcc7ItVI-fthzScfV-7" style="edgeStyle=orthogonalEdgeStyle;rounded=0;orthogonalLoop=1;jettySize=auto;html=1;entryX=0.25;entryY=1;entryDx=0;entryDy=0;" parent="1" source="h68zcc7ItVI-fthzScfV-1" target="taIFqjmm-IjXkgndWMbO-37" edge="1">
                    <mxGeometry relative="1" as="geometry">
                        <Array as="points">
                            <mxPoint x="755" y="465"/>
                        </Array>
                    </mxGeometry>
                </mxCell>
                <mxCell id="h68zcc7ItVI-fthzScfV-1" value="Weather Metric Aggregator" style="html=1;dropTarget=0;whiteSpace=wrap;" parent="1" vertex="1">
                    <mxGeometry x="50" y="420" width="180" height="90" as="geometry"/>
                </mxCell>
                <mxCell id="h68zcc7ItVI-fthzScfV-2" value="" style="shape=module;jettyWidth=8;jettyHeight=4;" parent="h68zcc7ItVI-fthzScfV-1" vertex="1">
                    <mxGeometry x="1" width="20" height="20" relative="1" as="geometry">
                        <mxPoint x="-27" y="7" as="offset"/>
                    </mxGeometry>
                </mxCell>
                <mxCell id="h68zcc7ItVI-fthzScfV-3" value="&lt;div style=&quot;box-sizing:border-box;width:100%;background:#e4e4e4;padding:2px;&quot;&gt;WeatherSensor.metrics&lt;/div&gt;" style="verticalAlign=top;align=left;overflow=fill;html=1;whiteSpace=wrap;" parent="1" vertex="1">
                    <mxGeometry x="710" y="490" width="180" height="17" as="geometry"/>
                </mxCell>
                <mxCell id="P2h2nq67WLhF7IXcXq87-1" value="&lt;div style=&quot;box-sizing:border-box;width:100%;background:#e4e4e4;padding:2px;&quot;&gt;User.Failed-Registrations&lt;/div&gt;" style="verticalAlign=top;align=left;overflow=fill;html=1;whiteSpace=wrap;" parent="1" vertex="1">
                    <mxGeometry x="920" y="122.5" width="80" height="35" as="geometry"/>
                </mxCell>
                <mxCell id="P2h2nq67WLhF7IXcXq87-5" style="edgeStyle=orthogonalEdgeStyle;rounded=0;orthogonalLoop=1;jettySize=auto;html=1;entryX=1;entryY=0.5;entryDx=0;entryDy=0;" parent="1" source="P2h2nq67WLhF7IXcXq87-3" target="P2h2nq67WLhF7IXcXq87-1" edge="1">
                    <mxGeometry relative="1" as="geometry"/>
                </mxCell>
                <mxCell id="P2h2nq67WLhF7IXcXq87-3" value="Failed Registration Handler" style="html=1;dropTarget=0;whiteSpace=wrap;" parent="1" vertex="1">
                    <mxGeometry x="1060" y="140" width="180" height="90" as="geometry"/>
                </mxCell>
                <mxCell id="P2h2nq67WLhF7IXcXq87-4" value="" style="shape=module;jettyWidth=8;jettyHeight=4;" parent="P2h2nq67WLhF7IXcXq87-3" vertex="1">
                    <mxGeometry x="1" width="20" height="20" relative="1" as="geometry">
                        <mxPoint x="-27" y="7" as="offset"/>
                    </mxGeometry>
                </mxCell>
                <mxCell id="5W_pKrKouGjYSlQQVeSI-1" value="&lt;div style=&quot;box-sizing:border-box;width:100%;background:#e4e4e4;padding:2px;&quot;&gt;User.Pending-Registrations&lt;/div&gt;&lt;table style=&quot;width:100%;font-size:1em;&quot; cellpadding=&quot;2&quot; cellspacing=&quot;0&quot;&gt;&lt;tbody&gt;&lt;tr&gt;&lt;td&gt;Key&lt;/td&gt;&lt;td&gt;UserID&lt;/td&gt;&lt;/tr&gt;&lt;tr&gt;&lt;td&gt;Value&lt;/td&gt;&lt;td&gt;UserName&lt;/td&gt;&lt;/tr&gt;&lt;tr&gt;&lt;td&gt;&lt;/td&gt;&lt;td&gt;Email&lt;br&gt;Password&lt;br&gt;Location&lt;/td&gt;&lt;/tr&gt;&lt;/tbody&gt;&lt;/table&gt;" style="verticalAlign=top;align=left;overflow=fill;html=1;whiteSpace=wrap;" parent="1" vertex="1">
                    <mxGeometry x="-130" y="-630" width="180" height="100" as="geometry"/>
                </mxCell>
                <mxCell id="5W_pKrKouGjYSlQQVeSI-2" value="&lt;div style=&quot;box-sizing:border-box;width:100%;background:#e4e4e4;padding:2px;&quot;&gt;User.Registered&lt;/div&gt;&lt;table style=&quot;width:100%;font-size:1em;&quot; cellpadding=&quot;2&quot; cellspacing=&quot;0&quot;&gt;&lt;tbody&gt;&lt;tr&gt;&lt;td&gt;Key&lt;/td&gt;&lt;td&gt;UserID&lt;/td&gt;&lt;/tr&gt;&lt;tr&gt;&lt;td&gt;Value&lt;/td&gt;&lt;td&gt;UserName&lt;/td&gt;&lt;/tr&gt;&lt;tr&gt;&lt;td&gt;&lt;/td&gt;&lt;td&gt;Email&lt;br&gt;Password&lt;br&gt;Location&lt;/td&gt;&lt;/tr&gt;&lt;/tbody&gt;&lt;/table&gt;" style="verticalAlign=top;align=left;overflow=fill;html=1;whiteSpace=wrap;strokeColor=default;" parent="1" vertex="1">
                    <mxGeometry x="60" y="-630" width="180" height="100" as="geometry"/>
                </mxCell>
                <mxCell id="5W_pKrKouGjYSlQQVeSI-3" value="&lt;div style=&quot;box-sizing:border-box;width:100%;background:#e4e4e4;padding:2px;&quot;&gt;User.Login-Activity&lt;/div&gt;&lt;table style=&quot;width:100%;font-size:1em;&quot; cellpadding=&quot;2&quot; cellspacing=&quot;0&quot;&gt;&lt;tbody&gt;&lt;tr&gt;&lt;td&gt;Key&lt;/td&gt;&lt;td&gt;UserID&lt;/td&gt;&lt;/tr&gt;&lt;tr&gt;&lt;td&gt;Value&lt;/td&gt;&lt;td&gt;isValidated&lt;/td&gt;&lt;/tr&gt;&lt;tr&gt;&lt;td&gt;&lt;/td&gt;&lt;td&gt;&lt;br&gt;&lt;/td&gt;&lt;/tr&gt;&lt;/tbody&gt;&lt;/table&gt;" style="verticalAlign=top;align=left;overflow=fill;html=1;whiteSpace=wrap;" parent="1" vertex="1">
                    <mxGeometry x="260" y="-630" width="180" height="60" as="geometry"/>
                </mxCell>
                <mxCell id="5W_pKrKouGjYSlQQVeSI-5" value="&lt;div style=&quot;box-sizing:border-box;width:100%;background:#e4e4e4;padding:2px;&quot;&gt;WeatherSensor.submitted&lt;/div&gt;&lt;table style=&quot;width:100%;font-size:1em;&quot; cellpadding=&quot;2&quot; cellspacing=&quot;0&quot;&gt;&lt;tbody&gt;&lt;tr&gt;&lt;td&gt;Key&lt;/td&gt;&lt;td&gt;UserID&lt;/td&gt;&lt;/tr&gt;&lt;tr&gt;&lt;td&gt;Value&lt;/td&gt;&lt;td&gt;isValidated&lt;/td&gt;&lt;/tr&gt;&lt;tr&gt;&lt;td&gt;&lt;/td&gt;&lt;td&gt;&lt;br&gt;&lt;/td&gt;&lt;/tr&gt;&lt;/tbody&gt;&lt;/table&gt;" style="verticalAlign=top;align=left;overflow=fill;html=1;whiteSpace=wrap;" parent="1" vertex="1">
                    <mxGeometry x="460" y="-630" width="180" height="60" as="geometry"/>
                </mxCell>
                <mxCell id="5W_pKrKouGjYSlQQVeSI-6" value="&lt;div style=&quot;box-sizing:border-box;width:100%;background:#e4e4e4;padding:2px;&quot;&gt;WeatherSensor.metrics&lt;/div&gt;&lt;table style=&quot;width:100%;font-size:1em;&quot; cellpadding=&quot;2&quot; cellspacing=&quot;0&quot;&gt;&lt;tbody&gt;&lt;tr&gt;&lt;td&gt;Key&lt;/td&gt;&lt;td&gt;UserID&lt;/td&gt;&lt;/tr&gt;&lt;tr&gt;&lt;td&gt;Value&lt;/td&gt;&lt;td&gt;Sensor-id&lt;br&gt;&lt;/td&gt;&lt;/tr&gt;&lt;tr&gt;&lt;td&gt;&lt;br&gt;&lt;/td&gt;&lt;td&gt;Location&lt;br&gt;Temperatur-celsius&lt;br&gt;Co2-ppm&lt;br&gt;Pressure-mmHg&lt;br&gt;Precipitation-mm&lt;br&gt;Wind-ms&lt;br&gt;&lt;br&gt;&lt;/td&gt;&lt;/tr&gt;&lt;/tbody&gt;&lt;/table&gt;" style="verticalAlign=top;align=left;overflow=fill;html=1;whiteSpace=wrap;" parent="1" vertex="1">
                    <mxGeometry x="680" y="-630" width="180" height="163.5" as="geometry"/>
                </mxCell>
                <mxCell id="5W_pKrKouGjYSlQQVeSI-8" value="&lt;div style=&quot;box-sizing:border-box;width:100%;background:#e4e4e4;padding:2px;&quot;&gt;User.Failed-Registrations&lt;/div&gt;&lt;table style=&quot;width:100%;font-size:1em;&quot; cellpadding=&quot;2&quot; cellspacing=&quot;0&quot;&gt;&lt;tbody&gt;&lt;tr&gt;&lt;td&gt;Key&lt;/td&gt;&lt;td&gt;UserID&lt;/td&gt;&lt;/tr&gt;&lt;tr&gt;&lt;td&gt;Value&lt;/td&gt;&lt;td&gt;UserName&lt;/td&gt;&lt;/tr&gt;&lt;tr&gt;&lt;td&gt;&lt;/td&gt;&lt;td&gt;Email&lt;br&gt;Reason&lt;br&gt;Location&lt;/td&gt;&lt;/tr&gt;&lt;/tbody&gt;&lt;/table&gt;" style="verticalAlign=top;align=left;overflow=fill;html=1;whiteSpace=wrap;" parent="1" vertex="1">
                    <mxGeometry x="-130" y="-500" width="180" height="100" as="geometry"/>
                </mxCell>
                <mxCell id="5W_pKrKouGjYSlQQVeSI-9" value="&lt;font style=&quot;font-size: 21px;&quot;&gt;Schema-Registry&lt;/font&gt;" style="shape=umlFrame;whiteSpace=wrap;html=1;pointerEvents=0;width=170;height=50;" parent="1" vertex="1">
                    <mxGeometry x="-320" y="-640" width="1230" height="520" as="geometry"/>
                </mxCell>
            </root>
        </mxGraphModel>
    </diagram>
</mxfile>